<svg version="1.1" id="图层_1" xmlns="http://www.w3.org/2000/svg" xmlns:xlink="http://www.w3.org/1999/xlink" x="0px" y="0px"
	 width="190.4px" height="205.8px" viewBox="0 0 190.4 205.8" enable-background="new 0 0 190.4 205.8" xml:space="preserve">
<g>
    <path fill="none" stroke="#000000" stroke-width="7" stroke-linecap="round" stroke-linejoin="round" stroke-miterlimit="10" d="
        M83.3,40.1C62.4,57.6,40.6,91.9,41,120.2c0.5,40.5,52,46,80.7,29.6c23.9-13.7,73.6-69.9,56.7-102.5c-4.7-9-18.1-15.4-27.1-18.1
        C115.6,18.9,85,31,56.3,51.1"/>
    <path fill="none" stroke="#000000" stroke-width="7" stroke-linecap="round" stroke-linejoin="round" stroke-miterlimit="10" d="
        M79.3,67.1c16.4,20.8,42,30.8,62,47"/>
    <path fill="none" stroke="#000000" stroke-width="7" stroke-linecap="round" stroke-linejoin="round" stroke-miterlimit="10" d="
        M130.3,59.1c-17.5,15.4-30.1,41.1-44.6,59.8c-2.9,3.8-5.6,6.6-8.4,10.2"/>
    <path fill="none" stroke="#CCCCCC" stroke-width="30" stroke-linecap="square" stroke-linejoin="bevel" stroke-opacity=".6" 
        stroke-miterlimit="10" d="
        M70.3,26.1C54,56,27.1,79.4,9.2,108.4C50,76.5,85.8,34.3,134.6,13.8c-4.5,12.5-17.4,25-25.5,34.9C93,68.7,76.1,87.8,60,107.8
        c-7.2,8.9-15,17.8-21.7,26.7c21.2-27,43.4-53.3,69.8-75.3c10.6-8.9,25.5-24.3,39.4-27.2C121.3,82,71,117.7,43.7,167.5
        c26.1-27.1,56.4-50.4,84.3-75.6c15.9-14.4,31.8-27.7,48.8-40.3c-5.1,11.1-15,22-22.3,31.3c-19.5,24.8-39.6,49.2-59.2,73.9
        c-8.9,11.3-23.4,23.9-29.1,37.4c24.4-20.1,49.3-40,73.6-60.3c9.4-7.9,21.7-21.7,32.4-26.5c-9.8,16.7-24.9,35.5-38.2,49.6
        c8.3-5.7,19.6-13.8,25.2-21.9"/>
</g>
</svg>
